<!DOCTYPE svg PUBLIC "-//W3C//DTD SVG 20010904//EN" "http://www.w3.org/TR/2001/REC-SVG-20010904/DTD/svg10.dtd">
<svg version="1.0" xmlns="http://www.w3.org/2000/svg" width="1583px" height="1583px" viewBox="0 0 3800 3800" preserveAspectRatio="xMidYMid meet">
<g id="layer1" fill="#c7c8ca" stroke="none">
 <path d="M1340 3768 c-191 -32 -328 -62 -347 -74 -21 -13 -23 -23 -23 -89 0 -42 13 -207 30 -368 42 -409 60 -779 59 -1207 0 -301 -3 -358 -13 -325 l-12 40 -72 3 c-56 2 -74 0 -78 -12 -3 -7 13 -56 35 -108 22 -52 61 -154 86 -228 l46 -135 -12 -110 c-8 -81 -9 -121 0 -150 12 -46 63 -135 124 -215 54 -71 367 -390 383 -390 12 0 54 59 54 76 0 5 -31 33 -70 62 -89 68 -160 146 -227 249 -189 289 -229 664 -132 1228 11 66 58 291 104 500 92 417 127 594 150 772 19 145 29 417 17 458 -10 34 -22 37 -102 23z M2371 3761 c-16 -28 -13 -232 4 -395 21 -203 55 -383 151 -816 152 -686 188 -979 153 -1265 -37 -302 -173 -561 -384 -733 -44 -36 -81 -70 -83 -76 -1 -6 10 -27 26 -46 l29 -34 69 62 c139 125 324 336 392 447 51 85 57 121 43 249 l-12 112 49 140 c27 76 66 178 87 226 20 48 35 95 31 103 -4 11 -21 15 -69 15 -69 0 -77 -5 -95 -55 -17 -47 -14 611 3 945 8 157 29 417 45 579 17 161 30 331 30 377 0 76 -2 85 -22 98 -20 13 -255 62 -390 80 -40 6 -48 4 -57 -13z"/>
 </g>
</svg>