<!DOCTYPE svg PUBLIC "-//W3C//DTD SVG 20010904//EN" "http://www.w3.org/TR/2001/REC-SVG-20010904/DTD/svg10.dtd">
<svg version="1.0" xmlns="http://www.w3.org/2000/svg" width="1583px" height="1583px" viewBox="0 0 15830 15830" preserveAspectRatio="xMidYMid meet">
<g id="layer1" fill="#aaaaaa" stroke="none">
 <path d="M7260 15800 c-554 -4 -848 -10 -875 -17 -22 -6 -83 -14 -135 -18 -52 -3 -122 -13 -155 -20 -33 -8 -121 -19 -195 -24 -74 -6 -148 -14 -165 -20 -105 -32 -313 -73 -550 -107 -55 -8 -113 -18 -130 -23 -16 -5 -55 -13 -85 -16 -30 -4 -80 -13 -110 -20 -30 -7 -84 -16 -120 -20 -36 -4 -83 -11 -105 -16 -22 -5 -76 -16 -120 -24 -231 -41 -299 -60 -563 -159 -44 -17 -92 -65 -92 -92 0 -19 -6 -23 -37 -26 -33 -3 -38 -6 -38 -28 0 -21 5 -25 27 -25 25 1 27 -3 32 -50 3 -27 8 -151 11 -275 4 -160 12 -252 25 -320 10 -52 22 -135 25 -185 4 -49 12 -110 17 -135 6 -25 12 -72 13 -105 2 -33 6 -123 10 -200 4 -77 11 -159 16 -181 5 -23 15 -99 24 -170 8 -71 22 -151 30 -178 8 -27 15 -79 15 -116 0 -37 7 -89 15 -116 10 -34 16 -118 20 -269 3 -121 12 -260 20 -310 8 -49 18 -214 23 -365 6 -198 12 -282 22 -300 17 -31 28 -335 29 -773 1 -222 5 -328 15 -380 8 -40 17 -131 20 -202 3 -76 13 -155 23 -190 16 -54 17 -124 19 -665 0 -424 4 -620 13 -655 32 -139 33 -182 28 -890 -5 -582 -8 -722 -21 -775 -11 -48 -16 -160 -21 -430 -4 -201 -11 -390 -17 -420 -6 -30 -13 -74 -15 -97 -5 -40 -7 -43 -34 -43 -23 0 -30 5 -35 28 -3 15 -21 74 -39 132 -18 58 -36 126 -40 151 -8 60 -64 118 -127 130 -66 13 -186 10 -253 -5 -33 -8 -91 -17 -130 -21 -38 -3 -99 -13 -135 -21 -148 -32 -217 -45 -258 -49 -23 -2 -84 -15 -135 -28 -50 -14 -110 -28 -132 -32 -60 -10 -247 -54 -270 -64 -50 -21 -243 -83 -272 -87 -94 -13 -522 -206 -543 -245 -15 -27 -16 -215 -2 -260 6 -19 13 -65 17 -104 3 -38 13 -94 21 -123 8 -29 13 -56 10 -60 -7 -11 21 -230 38 -297 20 -79 45 -241 61 -395 7 -69 26 -204 43 -300 17 -96 33 -213 37 -260 4 -47 13 -112 20 -145 7 -33 16 -91 20 -130 3 -38 11 -90 16 -115 6 -24 17 -93 24 -153 8 -60 24 -138 35 -174 11 -36 20 -79 20 -97 0 -17 4 -47 10 -66 5 -19 16 -82 24 -140 9 -58 25 -145 36 -195 11 -49 29 -130 39 -180 76 -369 224 -660 442 -870 190 -182 328 -287 564 -427 66 -40 138 -84 161 -99 22 -15 108 -63 191 -107 83 -44 183 -103 222 -131 39 -28 74 -51 77 -51 3 0 44 -18 90 -41 47 -22 107 -47 135 -55 69 -21 181 -72 261 -121 37 -23 82 -44 100 -48 62 -14 173 -63 423 -188 275 -138 448 -237 609 -349 58 -40 125 -85 148 -100 63 -40 206 -155 282 -226 66 -61 67 -62 114 -56 26 4 117 24 202 46 85 21 191 43 235 49 44 5 112 16 150 23 39 8 138 17 220 21 83 3 191 14 240 23 80 15 181 17 905 17 721 0 825 -2 900 -17 47 -9 119 -20 160 -23 71 -7 126 -18 335 -67 78 -18 94 -26 122 -57 24 -28 34 -33 43 -24 8 7 31 9 64 6 45 -5 56 -2 81 19 29 25 212 164 350 267 39 28 87 65 107 81 20 17 43 30 50 30 8 0 27 14 44 31 16 17 49 40 73 50 24 11 87 45 140 76 127 75 642 334 733 369 40 15 131 55 202 89 72 34 158 72 191 84 90 34 230 103 325 162 47 28 148 81 225 117 97 44 149 74 170 98 17 18 62 50 100 70 121 62 353 221 398 271 10 12 38 26 62 33 37 10 61 30 141 117 240 259 364 484 447 813 25 96 48 202 52 234 4 33 11 70 16 82 4 13 15 74 23 136 8 63 19 125 24 138 5 14 13 54 17 90 4 36 13 83 21 105 7 22 20 94 28 160 9 66 20 136 25 155 5 19 12 67 16 105 3 39 12 95 20 125 7 30 16 102 19 160 4 58 13 132 20 165 8 33 17 85 21 115 4 30 11 72 16 92 5 21 16 102 24 180 18 172 52 395 65 423 5 11 17 72 26 135 9 63 20 123 26 133 5 11 8 27 5 36 -4 17 13 171 32 276 6 33 11 104 11 158 l0 98 -47 20 c-27 12 -111 49 -188 85 -173 79 -452 183 -524 195 -30 6 -58 12 -63 15 -37 23 -741 182 -837 189 -77 5 -143 14 -235 31 -43 8 -124 14 -180 14 l-102 0 -37 -38 c-54 -55 -92 -163 -101 -282 -7 -102 -13 -114 -63 -125 -30 -6 -31 -5 -38 37 -3 24 -13 79 -20 123 -9 50 -18 215 -24 440 -8 266 -14 378 -26 430 -14 62 -16 152 -12 770 3 540 7 709 17 740 10 30 15 193 20 665 5 453 10 635 19 660 12 35 14 53 26 265 4 61 13 137 20 170 11 46 15 189 18 595 4 495 6 541 25 615 16 66 21 126 26 340 3 171 10 286 20 335 9 41 20 172 25 290 10 203 28 370 51 469 6 25 17 114 25 198 8 85 16 157 19 161 2 4 12 83 21 177 9 93 19 173 21 177 3 5 11 104 18 222 9 145 18 223 28 243 12 24 15 98 17 400 l2 369 -45 38 c-35 29 -81 49 -193 87 -81 27 -181 56 -223 63 -41 8 -128 28 -194 45 -65 17 -121 29 -125 27 -16 -10 -384 53 -460 79 -25 8 -63 15 -86 15 -23 0 -75 8 -116 19 -41 10 -102 21 -137 25 -35 3 -87 12 -115 20 -78 21 -272 54 -362 61 -44 3 -116 12 -160 20 -44 8 -120 17 -170 20 -49 3 -128 12 -175 20 -110 18 -971 24 -2110 15z"/>
 </g>

</svg>