<!DOCTYPE svg PUBLIC "-//W3C//DTD SVG 20010904//EN" "http://www.w3.org/TR/2001/REC-SVG-20010904/DTD/svg10.dtd">
<svg version="1.0" xmlns="http://www.w3.org/2000/svg" width="1583px" height="1583px" viewBox="0 0 3800 3800" preserveAspectRatio="xMidYMid meet">
   <g id="layer1" fill="#c7c8ca" stroke="none">
        <path d="M108.000 135.626 C 108.000 137.620,109.610 143.275,111.577 148.193 C 113.545 153.110,116.145 161.041,117.356 165.817 C 118.566 170.593,119.835 174.950,120.175 175.500 C 120.979 176.801,125.673 205.903,126.950 217.500 C 130.640 251.031,133.135 299.290,134.551 364.500 C 135.238 396.152,135.094 395.000,138.370 395.000 L 140.802 395.000 140.473 382.250 C 136.768 238.653,131.288 184.181,116.829 147.250 C 110.724 131.654,108.000 128.068,108.000 135.626 M286.282 134.750 C 285.646 136.262,283.716 140.650,281.993 144.500 C 269.637 172.110,265.065 206.200,259.461 312.500 C 258.621 328.444,257.031 375.732,257.016 385.250 L 257.000 395.000 259.531 395.000 C 262.931 395.000,262.759 396.425,263.434 362.500 C 265.927 237.174,273.192 173.385,288.460 142.780 C 290.362 138.966,290.530 132.000,288.719 132.000 C 288.015 132.000,286.918 133.238,286.282 134.750"/>
    </g>
</svg>